<?xml version="1.0" standalone="no"?>
<!DOCTYPE svg PUBLIC "-//W3C//DTD SVG 20010904//EN"
 "http://www.w3.org/TR/2001/REC-SVG-20010904/DTD/svg10.dtd">
<svg version="1.0" xmlns="http://www.w3.org/2000/svg"
 width="72.000000pt" height="72.000000pt" viewBox="0 0 72.000000 72.000000"
 preserveAspectRatio="xMidYMid meet">
<metadata>
Created by potrace 1.14, written by Peter Selinger 2001-2017
</metadata>
<g transform="translate(0.000000,72.000000) scale(0.100000,-0.100000)"
fill="#000000" stroke="none">
<path d="M350 360 l0 -360 180 0 180 0 0 360 0 360 -180 0 -180 0 0 -360z"/>
<path d="M10 410 c0 -25 5 -28 68 -45 101 -27 102 -30 15 -51 -73 -18 -78 -21
-81 -47 -3 -26 -1 -28 18 -22 13 4 28 8 34 9 6 1 20 5 31 9 11 3 39 11 63 17
l43 11 -3 47 -3 46 -92 27 -93 27 0 -28z"/>
</g>
</svg>
